<?xml version="1.0" encoding="UTF-8" standalone="no"?>
<!-- Created with Inkscape (http://www.inkscape.org/) -->

<svg
   xmlns:dc="http://purl.org/dc/elements/1.1/"
   xmlns:cc="http://creativecommons.org/ns#"
   xmlns:rdf="http://www.w3.org/1999/02/22-rdf-syntax-ns#"
   xmlns:svg="http://www.w3.org/2000/svg"
   xmlns="http://www.w3.org/2000/svg"
   xmlns:sodipodi="http://sodipodi.sourceforge.net/DTD/sodipodi-0.dtd"
   xmlns:inkscape="http://www.inkscape.org/namespaces/inkscape"
   version="1.1"
   id="svg3713"
   width="933.33331"
   height="933.33331"
   viewBox="0 0 933.33331 933.33331"
   sodipodi:docname="MailsaicLogo32.svg"
   inkscape:version="0.92.4 (5da689c313, 2019-01-14)">
  <metadata
     id="metadata3719">
    <rdf:RDF>
      <cc:Work
         rdf:about="">
        <dc:format>image/svg+xml</dc:format>
        <dc:type
           rdf:resource="http://purl.org/dc/dcmitype/StillImage" />
        <dc:title></dc:title>
      </cc:Work>
    </rdf:RDF>
  </metadata>
  <defs
     id="defs3717" />
  <sodipodi:namedview
     pagecolor="#ffffff"
     bordercolor="#666666"
     borderopacity="1"
     objecttolerance="10"
     gridtolerance="10"
     guidetolerance="10"
     inkscape:pageopacity="0"
     inkscape:pageshadow="2"
     inkscape:window-width="1920"
     inkscape:window-height="1057"
     id="namedview3715"
     showgrid="false"
     inkscape:zoom="0.95142859"
     inkscape:cx="466.66666"
     inkscape:cy="466.66666"
     inkscape:window-x="-8"
     inkscape:window-y="-8"
     inkscape:window-maximized="1"
     inkscape:current-layer="svg3713" />
  <path
     inkscape:connector-curvature="0"
     id="path3737"
     d="M 436.76612,929.95052 C 273.17063,919.52856 126.86799,822.24525 53.002742,674.76875 0.78627249,570.51538 -9.6670175,447.8644 24.088652,335.51284 64.491492,201.03699 165.80304,90.86043 296.74407,38.999393 c 108.75837,-43.0752865 231.0868,-43.0752865 339.84517,0 118.40141,46.894567 212.95221,141.445317 259.84681,259.846777 43.0753,108.75837 43.0753,231.0868 0,339.84517 -56.8143,143.44709 -183.0754,250.32956 -333.10273,281.97795 -24.18203,5.10121 -44.24805,7.77771 -70.66667,9.42581 -23.65861,1.47592 -30.75106,1.45758 -55.90053,-0.14458 z M 797.33335,490.04831 V 267.32788 l -33.7769,29.72044 c -18.5772,16.34624 -92.4041,81.32044 -164.05972,144.3871 -74.13602,65.24977 -131.36457,114.66667 -132.7928,114.66667 -1.38042,0 -14.10354,-10.24879 -28.27357,-22.77508 C 415.80927,513.32998 319.25569,428.39265 179.66666,305.69485 L 136,267.31215 v 222.7283 222.7283 h 330.66665 330.6667 z M 313.99999,696.9397 c -9.91317,-2.59178 -14.38809,-8.44742 -15.10912,-19.77104 -0.29177,-4.58226 -0.14636,-9.86192 0.32315,-11.73259 1.24375,-4.95547 9.69208,-13.73241 16.59517,-17.24067 l 5.98752,-3.04294 -4.68512,-0.87894 c -15.76886,-2.95825 -14.4854,-26.08365 1.88755,-34.00966 17.88172,-8.65639 43.89082,-6.20423 53.34316,5.02924 5.95104,7.0724 6.88928,13.11785 5.09969,32.85886 -0.86672,9.56076 -1.23635,18.26076 -0.82139,19.33334 0.41496,1.07256 2.59746,3.00226 4.84999,4.28824 3.86033,2.20385 4.04165,2.66324 3.15761,8 -1.19565,7.21792 -2.30058,9.25485 -7.30406,13.46501 -7.76324,6.53232 -20.37619,6.25435 -26.76975,-0.58997 l -3.65597,-3.91375 -6.64532,4.13095 c -7.10709,4.41801 -18.29596,6.15428 -26.25311,4.07392 z m 26.94767,-28.50428 c 3.00154,-3.27939 5.21421,-9.00443 3.47552,-8.99256 -7.14275,0.0487 -16.08965,6.13062 -14.62675,9.94289 1.19316,3.10932 7.96363,2.53232 11.15123,-0.95033 z m 0.99317,-25.8653 c 6.21891,-0.8524 6.30093,-0.92696 5.50147,-5 -0.81978,-4.17653 -3.88566,-7.46804 -6.95614,-7.46804 -2.77685,0 -8.16793,5.76098 -9.04598,9.66667 -0.92983,4.13595 -0.35499,4.28931 10.50065,2.80137 z m 102.61275,53.7183 c -5.37647,-2.44751 -9.58815,-7.92886 -10.7481,-13.98827 -0.51218,-2.6756 0.0861,-17.46473 1.3296,-32.86473 1.24347,-15.4 2.89242,-37.29352 3.66432,-48.65228 0.77191,-11.35875 2.03128,-21.40875 2.79862,-22.33333 1.8681,-2.25092 13.38292,-2.14263 18.93721,0.1781 9.63689,4.02655 10.47385,10.3639 6.79809,51.47417 -1.08189,12.1 -1.97448,26.07791 -1.98353,31.06202 -0.0157,8.67714 0.15305,9.15848 3.9751,11.33333 3.33099,1.89543 3.99296,3.10975 4,7.33753 0.0107,6.2625 -2.74658,11.81135 -7.37559,14.84439 -4.76242,3.12045 -16.18807,3.97972 -21.39572,1.60907 z m 59.90485,0.51162 c -9.01686,-1.92466 -18.95254,-6.77458 -22.48922,-10.97769 -2.79545,-3.32221 -3.30256,-5.29672 -3.30256,-12.85923 0,-15.58569 5.85894,-18.81334 18.59398,-10.24329 11.30856,7.61011 23.40602,7.96336 23.40602,0.68348 0,-2.83841 -1.71888,-4.1424 -12.26056,-9.30123 -20.42237,-9.99418 -25.74797,-17.0905 -25.72641,-34.28021 0.0219,-17.41612 6.34056,-27.3616 21.98697,-34.60685 7.03803,-3.25904 9.60328,-3.70843 21.33334,-3.73723 12.153,-0.0299 13.88265,0.28976 19.5386,3.61027 7.52804,4.41957 11.79473,12.19755 11.79473,21.5012 0,11.99561 -7.20488,19.49837 -18.73333,19.50784 -6.89652,0.005 -9.26667,-1.69054 -9.26667,-6.63167 0,-9.86533 -11.359,-12.7018 -16.01636,-3.99945 -2.47731,4.6289 0.85008,7.89329 14.46717,14.19325 20.81623,9.63065 26.90356,17.35087 26.85324,34.0564 -0.0196,6.50233 -0.83302,11.48901 -2.45736,15.06456 -2.83901,6.24932 -10.22192,13.13463 -17.2185,16.05799 -5.98328,2.49997 -22.88834,3.58725 -30.50308,1.96186 z m 70.87489,0.13966 c -9.91317,-2.59178 -14.38809,-8.44742 -15.10912,-19.77104 -0.29177,-4.58226 -0.14636,-9.86192 0.32315,-11.73259 1.24374,-4.95547 9.69208,-13.73241 16.59517,-17.24067 l 5.98752,-3.04294 -4.68512,-0.87894 c -15.76887,-2.95825 -14.4854,-26.08365 1.88755,-34.00966 17.88172,-8.65639 43.89082,-6.20423 53.34315,5.02924 5.95104,7.0724 6.88928,13.11785 5.0997,32.85886 -0.86672,9.56076 -1.23635,18.26076 -0.82139,19.33334 0.41496,1.07256 2.59745,3.00226 4.84999,4.28824 3.86033,2.20385 4.04163,2.66324 3.15763,8 -1.1957,7.21792 -2.30061,9.25485 -7.30409,13.46501 -7.76324,6.53232 -20.37618,6.25435 -26.76974,-0.58997 l -3.65598,-3.91375 -6.64532,4.13095 c -7.10709,4.41801 -18.29595,6.15428 -26.2531,4.07392 z m 26.94766,-28.50428 c 3.00155,-3.27939 5.21422,-9.00443 3.47552,-8.99256 -7.14274,0.0487 -16.08965,6.13062 -14.62674,9.94289 1.19316,3.10932 7.96363,2.53232 11.15122,-0.95033 z m 0.99318,-25.8653 c 6.2189,-0.8524 6.30093,-0.92696 5.50146,-5 -0.81977,-4.17653 -3.88565,-7.46804 -6.95613,-7.46804 -2.77685,0 -8.16793,5.76098 -9.04598,9.66667 -0.92983,4.13595 -0.35499,4.28931 10.50065,2.80137 z m 118.72579,54.70502 c -13.5937,-3.46722 -21.7806,-10.20188 -25.9507,-21.3475 -3.7758,-10.09152 -3.7761,-29.42925 -8e-4,-40.63613 7.022,-20.84445 19.7547,-29.89293 41.9515,-29.81273 9.6875,0.0349 13.0597,0.60185 17.499,2.94153 10.4768,5.52176 15.1509,14.38589 13.3705,25.35684 -1.1352,6.99547 -6.7133,11.98736 -15.19,13.59367 -10.6548,2.01905 -13.624,0.24229 -13.6591,-8.1735 -0.042,-10.19186 -7.8147,-11.20616 -12.687,-1.65566 -2.0634,4.04444 -2.6667,7.85834 -2.6667,16.85672 0,10.32549 0.3406,11.9702 3.0377,14.66666 4.2374,4.23659 12.738,3.92727 20.7263,-0.75416 6.5947,-3.86478 10.1647,-4.41346 12.636,-1.94213 3.3353,3.33531 0.6262,15.50705 -4.7842,21.49532 -6.0469,6.69267 -24.7792,11.83497 -34.2825,9.41107 z m -548.60078,-2.24831 c -2.83784,-0.9816 -5.60164,-3.31089 -7.21264,-6.07869 -2.60597,-4.47723 -2.60353,-4.59826 1.08779,-54 2.0348,-27.232 4.30396,-50.26272 5.04257,-51.17939 0.91828,-1.13961 5.71004,-1.66666 15.15272,-1.66666 15.80785,0 23.02242,2.13728 27.24848,8.07222 3.51881,4.94172 6.98189,19.10753 10.00549,40.92777 1.34643,9.71667 2.85329,17.66667 3.3486,17.66667 0.49529,0 3.71523,-10.65 7.15541,-23.66667 9.45959,-35.79239 11.2276,-41.30021 13.54251,-42.18853 3.50369,-1.34449 30.19927,-0.89766 35.57584,0.59546 8.85387,2.45881 9.51213,4.8372 8.58125,31.0047 -1.22701,34.49151 -4.84446,78.54879 -6.6257,80.69505 -2.17803,2.62436 -19.56684,1.45154 -24.28166,-1.63773 -6.1063,-4.00101 -6.5344,-7.3044 -4.14678,-31.99881 1.19808,-12.39143 1.97541,-22.73279 1.7274,-22.9808 -0.24803,-0.24802 -3.81648,9.59042 -7.92991,21.8632 -11.03867,32.9348 -11.88363,34.6498 -17.59976,35.72216 -7.56344,1.4189 -16.43277,-0.4984 -20.82776,-4.50242 -4.24795,-3.87005 -6.27905,-10.40158 -12.12519,-38.9915 L 198,637.43542 l -0.83439,9.33333 c -0.45891,5.13333 -0.90891,17.76333 -1,28.06667 -0.11133,12.59108 -0.69021,19.25793 -1.76561,20.33333 -2.03296,2.03296 -14.96582,1.94556 -21.00083,-0.14192 z m 225.61223,-0.24111 c -2.63082,-1.14356 -5.20105,-3.7222 -6.56869,-6.59017 -2.11732,-4.44007 -2.09104,-6.82309 0.45613,-41.35929 1.77548,-24.07311 3.28475,-37.34883 4.39863,-38.69096 2.3532,-2.83546 14.12393,-2.66363 20.01731,0.29218 7.38917,3.70604 8.2677,6.71371 7.3019,24.99794 -1.60452,30.3762 -4.47248,59.553 -6.03941,61.44102 -2.04455,2.46355 -13.81523,2.40896 -19.56587,-0.0907 z m 259.99995,0 c -2.6308,-1.14356 -5.201,-3.7222 -6.5687,-6.59017 -2.1173,-4.44007 -2.091,-6.82309 0.4562,-41.35929 1.7755,-24.07311 3.2847,-37.34883 4.3986,-38.69096 2.3532,-2.83546 14.1239,-2.66363 20.0173,0.29218 7.3892,3.70604 8.2677,6.71371 7.3019,24.99794 -1.6045,30.3762 -4.4725,59.553 -6.0394,61.44102 -2.0445,2.46355 -13.8152,2.40896 -19.5659,-0.0907 z M 402.78762,601.98198 c -4.78934,-1.91495 -6.69799,-5.21947 -6.74523,-11.67828 -0.0349,-4.77312 0.67615,-6.46961 4.02139,-9.59453 4.45752,-4.16395 12.92381,-6.14727 19.79698,-4.63766 8.15356,1.79082 11.77062,11.05239 7.52379,19.26486 -3.33653,6.45214 -16.31251,9.95799 -24.59693,6.64561 z m 260.00003,0 c -4.7894,-1.91495 -6.698,-5.21947 -6.7453,-11.67828 -0.035,-4.77312 0.6762,-6.46961 4.0214,-9.59453 4.4575,-4.16395 12.9238,-6.14727 19.797,-4.63766 8.1536,1.79082 11.7706,11.05239 7.5238,19.26486 -3.3365,6.45214 -16.3125,9.95799 -24.5969,6.64561 z M 630.85276,388.10209 792.93965,245.43543 629.80313,245.09683 c -89.72506,-0.18624 -236.55614,-0.18624 -326.29128,0 l -163.15481,0.3386 162.15481,142.91394 c 89.18514,78.60267 163.07714,142.80266 164.20443,142.66666 1.12731,-0.136 74.98872,-64.44727 164.13648,-142.91394 z"
     style="fill:#ffffff;stroke-width:1.33333325;fill-opacity:1" />
</svg>
